FILE "Galaxian 3 (E) (Track 1) [SCES-00269].bin" BINARY
  TRACK 01 MODE2/2352
    INDEX 01 00:00:00
FILE "Galaxian 3 (E) (Track 2) [SCES-00269].bin" BINARY
  TRACK 02 AUDIO
    INDEX 00 00:00:00
    INDEX 01 00:02:00
FILE "Galaxian 3 (E) (Track 3) [SCES-00269].bin" BINARY
  TRACK 03 AUDIO
    INDEX 00 00:00:00
    INDEX 01 00:02:00
FILE "Galaxian 3 (E) (Track 4) [SCES-00269].bin" BINARY
  TRACK 04 AUDIO
    INDEX 00 00:00:00
    INDEX 01 00:02:00
